<svg width="156" height="156" viewBox="0 0 156 156" fill="none" xmlns="http://www.w3.org/2000/svg">
<circle cx="78" cy="78" r="78" fill="#77C5FD"/>
<path d="M35.392 69V64.852H41.036C42.0787 64.852 42.8947 64.546 43.484 63.934C44.0733 63.322 44.368 62.574 44.368 61.69C44.368 61.078 44.232 60.534 43.96 60.058C43.688 59.582 43.3027 59.208 42.804 58.936C42.328 58.664 41.7387 58.528 41.036 58.528H35.392V54.482H40.594C41.478 54.482 42.192 54.2667 42.736 53.836C43.28 53.3827 43.552 52.7027 43.552 51.796C43.552 50.912 43.28 50.2547 42.736 49.824C42.192 49.3707 41.478 49.144 40.594 49.144H35.392V44.996H41.614C43.1553 44.996 44.4587 45.2793 45.524 45.846C46.612 46.4127 47.4393 47.172 48.006 48.124C48.5727 49.076 48.856 50.13 48.856 51.286C48.856 52.7593 48.38 54.006 47.428 55.026C46.476 56.046 45.0707 56.7487 43.212 57.134L43.348 55.332C45.3653 55.7173 46.918 56.4993 48.006 57.678C49.1167 58.8567 49.672 60.3073 49.672 62.03C49.672 63.3447 49.3433 64.5347 48.686 65.6C48.0513 66.6427 47.122 67.47 45.898 68.082C44.6967 68.694 43.246 69 41.546 69H35.392ZM31.312 69V44.996H36.582V69H31.312ZM52.6173 69V52.476H57.8193V69H52.6173ZM57.8193 59.922L55.6433 58.222C56.0739 56.2953 56.7993 54.7993 57.8193 53.734C58.8393 52.6687 60.2559 52.136 62.0693 52.136C62.8626 52.136 63.5539 52.2607 64.1433 52.51C64.7553 52.7367 65.2879 53.0993 65.7413 53.598L62.6473 57.508C62.4206 57.2587 62.1373 57.066 61.7973 56.93C61.4573 56.794 61.0719 56.726 60.6413 56.726C59.7799 56.726 59.0886 56.998 58.5673 57.542C58.0686 58.0633 57.8193 58.8567 57.8193 59.922ZM73.5642 69.34C72.0455 69.34 70.6855 68.966 69.4842 68.218C68.3055 67.47 67.3648 66.45 66.6622 65.158C65.9822 63.866 65.6422 62.3927 65.6422 60.738C65.6422 59.0833 65.9822 57.61 66.6622 56.318C67.3648 55.026 68.3055 54.006 69.4842 53.258C70.6855 52.51 72.0455 52.136 73.5642 52.136C74.6748 52.136 75.6722 52.3513 76.5562 52.782C77.4628 53.2127 78.1995 53.8133 78.7662 54.584C79.3328 55.332 79.6502 56.1933 79.7182 57.168V64.308C79.6502 65.2827 79.3328 66.1553 78.7662 66.926C78.2222 67.674 77.4968 68.2633 76.5902 68.694C75.6835 69.1247 74.6748 69.34 73.5642 69.34ZM74.6182 64.648C75.7288 64.648 76.6242 64.2853 77.3042 63.56C77.9842 62.812 78.3242 61.8713 78.3242 60.738C78.3242 59.9673 78.1655 59.2873 77.8482 58.698C77.5535 58.1087 77.1228 57.6553 76.5562 57.338C76.0122 56.998 75.3775 56.828 74.6522 56.828C73.9268 56.828 73.2808 56.998 72.7142 57.338C72.1702 57.6553 71.7282 58.1087 71.3882 58.698C71.0708 59.2873 70.9122 59.9673 70.9122 60.738C70.9122 61.486 71.0708 62.1547 71.3882 62.744C71.7055 63.3333 72.1475 63.798 72.7142 64.138C73.2808 64.478 73.9155 64.648 74.6182 64.648ZM78.1202 69V64.546L78.9022 60.534L78.1202 56.522V52.476H83.2202V69H78.1202ZM97.7969 69V59.582C97.7969 58.7207 97.5249 58.0293 96.9809 57.508C96.4595 56.964 95.7909 56.692 94.9749 56.692C94.4082 56.692 93.9095 56.8167 93.4789 57.066C93.0482 57.2927 92.7082 57.6327 92.4589 58.086C92.2095 58.5167 92.0849 59.0153 92.0849 59.582L90.0789 58.596C90.0789 57.304 90.3622 56.1707 90.9289 55.196C91.4955 54.2213 92.2775 53.4733 93.2749 52.952C94.2949 52.408 95.4395 52.136 96.7089 52.136C97.9329 52.136 99.0095 52.4307 99.9389 53.02C100.891 53.5867 101.639 54.346 102.183 55.298C102.727 56.25 102.999 57.2927 102.999 58.426V69H97.7969ZM86.8829 69V52.476H92.0849V69H86.8829ZM113.378 69.34C111.814 69.34 110.42 68.966 109.196 68.218C107.995 67.47 107.043 66.45 106.34 65.158C105.66 63.866 105.32 62.3927 105.32 60.738C105.32 59.0833 105.66 57.61 106.34 56.318C107.043 55.026 107.995 54.006 109.196 53.258C110.42 52.51 111.814 52.136 113.378 52.136C114.511 52.136 115.531 52.3513 116.438 52.782C117.367 53.2127 118.127 53.8133 118.716 54.584C119.328 55.332 119.668 56.1933 119.736 57.168V64.138C119.668 65.1127 119.339 65.9967 118.75 66.79C118.161 67.5607 117.401 68.184 116.472 68.66C115.543 69.1133 114.511 69.34 113.378 69.34ZM114.296 64.648C115.044 64.648 115.69 64.4893 116.234 64.172C116.778 63.832 117.209 63.3673 117.526 62.778C117.843 62.1887 118.002 61.5087 118.002 60.738C118.002 59.9673 117.843 59.2987 117.526 58.732C117.231 58.1427 116.801 57.678 116.234 57.338C115.69 56.998 115.055 56.828 114.33 56.828C113.605 56.828 112.959 56.998 112.392 57.338C111.848 57.678 111.406 58.1427 111.066 58.732C110.749 59.3213 110.59 59.99 110.59 60.738C110.59 61.486 110.749 62.1547 111.066 62.744C111.383 63.3333 111.825 63.798 112.392 64.138C112.959 64.478 113.593 64.648 114.296 64.648ZM122.898 69H117.798V64.546L118.58 60.534L117.696 56.522V44.316H122.898V69Z" fill="#004F88"/>
<path d="M31.312 112V87.996H36.65V112H31.312ZM40.7969 112V95.476H45.9989V112H40.7969ZM51.3709 112V102.344C51.3709 101.505 51.1103 100.859 50.5889 100.406C50.0903 99.93 49.4669 99.692 48.7189 99.692C48.1976 99.692 47.7329 99.8053 47.3249 100.032C46.9169 100.236 46.5883 100.531 46.3389 100.916C46.1123 101.301 45.9989 101.777 45.9989 102.344L43.9929 101.46C43.9929 100.145 44.2763 99.0233 44.8429 98.094C45.4096 97.142 46.1803 96.4167 47.1549 95.918C48.1296 95.3967 49.2289 95.136 50.4529 95.136C51.6089 95.136 52.6403 95.3967 53.5469 95.918C54.4763 96.4393 55.2129 97.1647 55.7569 98.094C56.3009 99.0233 56.5729 100.134 56.5729 101.426V112H51.3709ZM61.9449 112V102.344C61.9449 101.505 61.6843 100.859 61.1629 100.406C60.6643 99.93 60.0409 99.692 59.2929 99.692C58.7716 99.692 58.3069 99.8053 57.8989 100.032C57.4909 100.236 57.1623 100.531 56.9129 100.916C56.6863 101.301 56.5729 101.777 56.5729 102.344L53.5809 101.936C53.6263 100.531 53.9549 99.3293 54.5669 98.332C55.2016 97.312 56.0289 96.53 57.0489 95.986C58.0916 95.4193 59.2589 95.136 60.5509 95.136C61.8203 95.136 62.9423 95.408 63.9169 95.952C64.9143 96.4733 65.6963 97.2327 66.2629 98.23C66.8523 99.2047 67.1469 100.383 67.1469 101.766V112H61.9449ZM77.3825 112.34C75.8639 112.34 74.5039 111.966 73.3025 111.218C72.1239 110.47 71.1832 109.45 70.4805 108.158C69.8005 106.866 69.4605 105.393 69.4605 103.738C69.4605 102.083 69.8005 100.61 70.4805 99.318C71.1832 98.026 72.1239 97.006 73.3025 96.258C74.5039 95.51 75.8639 95.136 77.3825 95.136C78.4932 95.136 79.4905 95.3513 80.3745 95.782C81.2812 96.2127 82.0179 96.8133 82.5845 97.584C83.1512 98.332 83.4685 99.1933 83.5365 100.168V107.308C83.4685 108.283 83.1512 109.155 82.5845 109.926C82.0405 110.674 81.3152 111.263 80.4085 111.694C79.5019 112.125 78.4932 112.34 77.3825 112.34ZM78.4365 107.648C79.5472 107.648 80.4425 107.285 81.1225 106.56C81.8025 105.812 82.1425 104.871 82.1425 103.738C82.1425 102.967 81.9839 102.287 81.6665 101.698C81.3719 101.109 80.9412 100.655 80.3745 100.338C79.8305 99.998 79.1959 99.828 78.4705 99.828C77.7452 99.828 77.0992 99.998 76.5325 100.338C75.9885 100.655 75.5465 101.109 75.2065 101.698C74.8892 102.287 74.7305 102.967 74.7305 103.738C74.7305 104.486 74.8892 105.155 75.2065 105.744C75.5239 106.333 75.9659 106.798 76.5325 107.138C77.0992 107.478 77.7339 107.648 78.4365 107.648ZM81.9385 112V107.546L82.7205 103.534L81.9385 99.522V95.476H87.0385V112H81.9385ZM97.7052 119.412C95.8919 119.412 94.2939 119.095 92.9112 118.46C91.5512 117.848 90.4746 116.975 89.6812 115.842L92.8772 112.646C93.4666 113.349 94.1239 113.881 94.8492 114.244C95.5972 114.607 96.4926 114.788 97.5352 114.788C98.8272 114.788 99.8359 114.471 100.561 113.836C101.309 113.201 101.683 112.306 101.683 111.15V106.934L102.567 103.33L101.785 99.726V95.476H106.885V111.014C106.885 112.714 106.489 114.187 105.695 115.434C104.902 116.681 103.814 117.655 102.431 118.358C101.049 119.061 99.4732 119.412 97.7052 119.412ZM97.4672 111.49C95.9486 111.49 94.5999 111.127 93.4212 110.402C92.2426 109.677 91.3132 108.691 90.6332 107.444C89.9532 106.197 89.6132 104.815 89.6132 103.296C89.6132 101.755 89.9532 100.372 90.6332 99.148C91.3132 97.9013 92.2426 96.9267 93.4212 96.224C94.5999 95.4987 95.9486 95.136 97.4672 95.136C98.6006 95.136 99.6092 95.3513 100.493 95.782C101.4 96.19 102.125 96.7793 102.669 97.55C103.236 98.298 103.553 99.1707 103.621 100.168V106.458C103.553 107.433 103.236 108.305 102.669 109.076C102.125 109.824 101.4 110.413 100.493 110.844C99.5866 111.275 98.5779 111.49 97.4672 111.49ZM98.4532 106.866C99.1786 106.866 99.8019 106.707 100.323 106.39C100.867 106.073 101.275 105.653 101.547 105.132C101.842 104.588 101.989 103.976 101.989 103.296C101.989 102.616 101.842 102.004 101.547 101.46C101.275 100.916 100.867 100.485 100.323 100.168C99.8019 99.8507 99.1786 99.692 98.4532 99.692C97.7506 99.692 97.1272 99.8507 96.5832 100.168C96.0392 100.485 95.6199 100.916 95.3252 101.46C95.0306 102.004 94.8832 102.616 94.8832 103.296C94.8832 103.931 95.0306 104.531 95.3252 105.098C95.6199 105.642 96.0279 106.073 96.5492 106.39C97.0932 106.707 97.7279 106.866 98.4532 106.866ZM118.717 112.374C116.926 112.374 115.328 112.011 113.923 111.286C112.54 110.538 111.452 109.507 110.659 108.192C109.865 106.877 109.469 105.393 109.469 103.738C109.469 102.083 109.854 100.61 110.625 99.318C111.418 98.0033 112.483 96.972 113.821 96.224C115.158 95.476 116.665 95.102 118.343 95.102C119.975 95.102 121.414 95.4533 122.661 96.156C123.907 96.8587 124.882 97.8333 125.585 99.08C126.31 100.327 126.673 101.755 126.673 103.364C126.673 103.659 126.65 103.976 126.605 104.316C126.582 104.633 126.525 105.007 126.435 105.438L112.189 105.472V101.902L124.225 101.868L121.981 103.364C121.958 102.412 121.811 101.63 121.539 101.018C121.267 100.383 120.859 99.9073 120.315 99.59C119.793 99.25 119.147 99.08 118.377 99.08C117.561 99.08 116.847 99.2727 116.235 99.658C115.645 100.021 115.181 100.542 114.841 101.222C114.523 101.902 114.365 102.729 114.365 103.704C114.365 104.679 114.535 105.517 114.875 106.22C115.237 106.9 115.736 107.433 116.371 107.818C117.028 108.181 117.799 108.362 118.683 108.362C119.499 108.362 120.235 108.226 120.893 107.954C121.55 107.659 122.128 107.229 122.627 106.662L125.483 109.518C124.667 110.47 123.681 111.184 122.525 111.66C121.369 112.136 120.099 112.374 118.717 112.374Z" fill="#004F88"/>
</svg>
