<svg width="156" height="156" viewBox="0 0 156 156" fill="none" xmlns="http://www.w3.org/2000/svg">
<circle cx="78" cy="78" r="78" fill="#77C5FD"/>
<path d="M25.09 70.33C23.51 70.33 22.04 70.06 20.68 69.52C19.34 68.96 18.16 68.18 17.14 67.18C16.14 66.18 15.36 65.02 14.8 63.7C14.24 62.36 13.96 60.92 13.96 59.38C13.96 57.84 14.24 56.41 14.8 55.09C15.36 53.75 16.14 52.59 17.14 51.61C18.14 50.63 19.31 49.87 20.65 49.33C22.01 48.77 23.48 48.49 25.06 48.49C26.74 48.49 28.23 48.76 29.53 49.3C30.85 49.84 32 50.58 32.98 51.52L29.83 54.7C29.27 54.1 28.59 53.63 27.79 53.29C27.01 52.95 26.1 52.78 25.06 52.78C24.14 52.78 23.29 52.94 22.51 53.26C21.75 53.56 21.09 54 20.53 54.58C19.99 55.16 19.56 55.86 19.24 56.68C18.94 57.5 18.79 58.4 18.79 59.38C18.79 60.38 18.94 61.29 19.24 62.11C19.56 62.93 19.99 63.63 20.53 64.21C21.09 64.79 21.75 65.24 22.51 65.56C23.29 65.88 24.14 66.04 25.06 66.04C26.14 66.04 27.08 65.87 27.88 65.53C28.68 65.19 29.37 64.72 29.95 64.12L33.13 67.3C32.11 68.24 30.94 68.98 29.62 69.52C28.32 70.06 26.81 70.33 25.09 70.33ZM41.042 70.3C39.702 70.3 38.502 69.97 37.442 69.31C36.402 68.65 35.572 67.75 34.952 66.61C34.352 65.47 34.052 64.17 34.052 62.71C34.052 61.25 34.352 59.95 34.952 58.81C35.572 57.67 36.402 56.77 37.442 56.11C38.502 55.45 39.702 55.12 41.042 55.12C42.022 55.12 42.902 55.31 43.682 55.69C44.482 56.07 45.132 56.6 45.632 57.28C46.132 57.94 46.412 58.7 46.472 59.56V65.86C46.412 66.72 46.132 67.49 45.632 68.17C45.152 68.83 44.512 69.35 43.712 69.73C42.912 70.11 42.022 70.3 41.042 70.3ZM41.972 66.16C42.952 66.16 43.742 65.84 44.342 65.2C44.942 64.54 45.242 63.71 45.242 62.71C45.242 62.03 45.102 61.43 44.822 60.91C44.562 60.39 44.182 59.99 43.682 59.71C43.202 59.41 42.642 59.26 42.002 59.26C41.362 59.26 40.792 59.41 40.292 59.71C39.812 59.99 39.422 60.39 39.122 60.91C38.842 61.43 38.702 62.03 38.702 62.71C38.702 63.37 38.842 63.96 39.122 64.48C39.402 65 39.792 65.41 40.292 65.71C40.792 66.01 41.352 66.16 41.972 66.16ZM45.062 70V66.07L45.752 62.53L45.062 58.99V55.42H49.562V70H45.062ZM54.8638 70V49.39H59.4538V70H54.8638ZM51.5638 59.32V55.42H62.7538V59.32H51.5638ZM71.6833 70.33C70.1033 70.33 68.6933 70.01 67.4533 69.37C66.2333 68.71 65.2733 67.8 64.5733 66.64C63.8733 65.48 63.5233 64.17 63.5233 62.71C63.5233 61.25 63.8633 59.95 64.5433 58.81C65.2433 57.65 66.1833 56.74 67.3633 56.08C68.5433 55.42 69.8733 55.09 71.3533 55.09C72.7933 55.09 74.0633 55.4 75.1633 56.02C76.2633 56.64 77.1233 57.5 77.7433 58.6C78.3833 59.7 78.7033 60.96 78.7033 62.38C78.7033 62.64 78.6833 62.92 78.6433 63.22C78.6233 63.5 78.5733 63.83 78.4933 64.21L65.9233 64.24V61.09L76.5433 61.06L74.5633 62.38C74.5433 61.54 74.4133 60.85 74.1733 60.31C73.9333 59.75 73.5733 59.33 73.0933 59.05C72.6333 58.75 72.0633 58.6 71.3833 58.6C70.6633 58.6 70.0333 58.77 69.4933 59.11C68.9733 59.43 68.5633 59.89 68.2633 60.49C67.9833 61.09 67.8433 61.82 67.8433 62.68C67.8433 63.54 67.9933 64.28 68.2933 64.9C68.6133 65.5 69.0533 65.97 69.6133 66.31C70.1933 66.63 70.8733 66.79 71.6533 66.79C72.3733 66.79 73.0233 66.67 73.6033 66.43C74.1833 66.17 74.6933 65.79 75.1333 65.29L77.6533 67.81C76.9333 68.65 76.0633 69.28 75.0433 69.7C74.0233 70.12 72.9033 70.33 71.6833 70.33ZM87.0988 76.54C85.4988 76.54 84.0888 76.26 82.8688 75.7C81.6688 75.16 80.7188 74.39 80.0188 73.39L82.8388 70.57C83.3588 71.19 83.9388 71.66 84.5788 71.98C85.2388 72.3 86.0288 72.46 86.9488 72.46C88.0888 72.46 88.9788 72.18 89.6188 71.62C90.2788 71.06 90.6088 70.27 90.6088 69.25V65.53L91.3888 62.35L90.6988 59.17V55.42H95.1988V69.13C95.1988 70.63 94.8488 71.93 94.1488 73.03C93.4488 74.13 92.4888 74.99 91.2688 75.61C90.0488 76.23 88.6588 76.54 87.0988 76.54ZM86.8888 69.55C85.5488 69.55 84.3588 69.23 83.3188 68.59C82.2788 67.95 81.4588 67.08 80.8588 65.98C80.2588 64.88 79.9588 63.66 79.9588 62.32C79.9588 60.96 80.2588 59.74 80.8588 58.66C81.4588 57.56 82.2788 56.7 83.3188 56.08C84.3588 55.44 85.5488 55.12 86.8888 55.12C87.8888 55.12 88.7788 55.31 89.5588 55.69C90.3588 56.05 90.9988 56.57 91.4788 57.25C91.9788 57.91 92.2588 58.68 92.3188 59.56V65.11C92.2588 65.97 91.9788 66.74 91.4788 67.42C90.9988 68.08 90.3588 68.6 89.5588 68.98C88.7588 69.36 87.8688 69.55 86.8888 69.55ZM87.7588 65.47C88.3988 65.47 88.9488 65.33 89.4088 65.05C89.8888 64.77 90.2488 64.4 90.4888 63.94C90.7488 63.46 90.8788 62.92 90.8788 62.32C90.8788 61.72 90.7488 61.18 90.4888 60.7C90.2488 60.22 89.8888 59.84 89.4088 59.56C88.9488 59.28 88.3988 59.14 87.7588 59.14C87.1388 59.14 86.5888 59.28 86.1088 59.56C85.6288 59.84 85.2588 60.22 84.9988 60.7C84.7388 61.18 84.6088 61.72 84.6088 62.32C84.6088 62.88 84.7388 63.41 84.9988 63.91C85.2588 64.39 85.6188 64.77 86.0788 65.05C86.5588 65.33 87.1188 65.47 87.7588 65.47ZM105.458 70.33C103.958 70.33 102.598 70 101.378 69.34C100.178 68.66 99.2284 67.74 98.5284 66.58C97.8284 65.42 97.4784 64.12 97.4784 62.68C97.4784 61.24 97.8284 59.95 98.5284 58.81C99.2284 57.67 100.178 56.77 101.378 56.11C102.578 55.43 103.938 55.09 105.458 55.09C106.978 55.09 108.338 55.42 109.538 56.08C110.738 56.74 111.688 57.65 112.388 58.81C113.088 59.95 113.438 61.24 113.438 62.68C113.438 64.12 113.088 65.42 112.388 66.58C111.688 67.74 110.738 68.66 109.538 69.34C108.338 70 106.978 70.33 105.458 70.33ZM105.458 66.16C106.118 66.16 106.698 66.02 107.198 65.74C107.698 65.44 108.078 65.03 108.338 64.51C108.618 63.97 108.758 63.36 108.758 62.68C108.758 62 108.618 61.41 108.338 60.91C108.058 60.39 107.668 59.99 107.168 59.71C106.688 59.41 106.118 59.26 105.458 59.26C104.818 59.26 104.248 59.41 103.748 59.71C103.248 59.99 102.858 60.39 102.578 60.91C102.298 61.43 102.158 62.03 102.158 62.71C102.158 63.37 102.298 63.97 102.578 64.51C102.858 65.03 103.248 65.44 103.748 65.74C104.248 66.02 104.818 66.16 105.458 66.16ZM115.724 70V55.42H120.314V70H115.724ZM120.314 61.99L118.394 60.49C118.774 58.79 119.414 57.47 120.314 56.53C121.214 55.59 122.464 55.12 124.064 55.12C124.764 55.12 125.374 55.23 125.894 55.45C126.434 55.65 126.904 55.97 127.304 56.41L124.574 59.86C124.374 59.64 124.124 59.47 123.824 59.35C123.524 59.23 123.184 59.17 122.804 59.17C122.044 59.17 121.434 59.41 120.974 59.89C120.534 60.35 120.314 61.05 120.314 61.99ZM132.909 70.06L126.909 55.42H131.859L135.669 67.03H133.839L137.739 55.42H142.689L136.449 70.06H132.909ZM129.159 76.15L133.539 66.7L136.449 70.06L133.869 76.15H129.159Z" fill="#004F88"/>
<path d="M37.04 113V91.82H41.75V113H37.04ZM45.4091 113V98.42H49.9991V113H45.4091ZM54.7391 113V104.48C54.7391 103.74 54.5091 103.17 54.0491 102.77C53.6091 102.35 53.0591 102.14 52.3991 102.14C51.9391 102.14 51.5291 102.24 51.1691 102.44C50.8091 102.62 50.5191 102.88 50.2991 103.22C50.0991 103.56 49.9991 103.98 49.9991 104.48L48.2291 103.7C48.2291 102.54 48.4791 101.55 48.9791 100.73C49.4791 99.89 50.1591 99.25 51.0191 98.81C51.8791 98.35 52.8491 98.12 53.9291 98.12C54.9491 98.12 55.8591 98.35 56.6591 98.81C57.4791 99.27 58.1291 99.91 58.6091 100.73C59.0891 101.55 59.3291 102.53 59.3291 103.67V113H54.7391ZM64.0691 113V104.48C64.0691 103.74 63.8391 103.17 63.3791 102.77C62.9391 102.35 62.3891 102.14 61.7291 102.14C61.2691 102.14 60.8591 102.24 60.4991 102.44C60.1391 102.62 59.8491 102.88 59.6291 103.22C59.4291 103.56 59.3291 103.98 59.3291 104.48L56.6891 104.12C56.7291 102.88 57.0191 101.82 57.5591 100.94C58.1191 100.04 58.8491 99.35 59.7491 98.87C60.6691 98.37 61.6991 98.12 62.8391 98.12C63.9591 98.12 64.9491 98.36 65.8091 98.84C66.6891 99.3 67.3791 99.97 67.8791 100.85C68.3991 101.71 68.6591 102.75 68.6591 103.97V113H64.0691ZM77.6905 113.3C76.3505 113.3 75.1505 112.97 74.0905 112.31C73.0505 111.65 72.2205 110.75 71.6005 109.61C71.0005 108.47 70.7005 107.17 70.7005 105.71C70.7005 104.25 71.0005 102.95 71.6005 101.81C72.2205 100.67 73.0505 99.77 74.0905 99.11C75.1505 98.45 76.3505 98.12 77.6905 98.12C78.6705 98.12 79.5505 98.31 80.3305 98.69C81.1305 99.07 81.7805 99.6 82.2805 100.28C82.7805 100.94 83.0605 101.7 83.1205 102.56V108.86C83.0605 109.72 82.7805 110.49 82.2805 111.17C81.8005 111.83 81.1605 112.35 80.3605 112.73C79.5605 113.11 78.6705 113.3 77.6905 113.3ZM78.6205 109.16C79.6005 109.16 80.3905 108.84 80.9905 108.2C81.5905 107.54 81.8905 106.71 81.8905 105.71C81.8905 105.03 81.7505 104.43 81.4705 103.91C81.2105 103.39 80.8305 102.99 80.3305 102.71C79.8505 102.41 79.2905 102.26 78.6505 102.26C78.0105 102.26 77.4405 102.41 76.9405 102.71C76.4605 102.99 76.0705 103.39 75.7705 103.91C75.4905 104.43 75.3505 105.03 75.3505 105.71C75.3505 106.37 75.4905 106.96 75.7705 107.48C76.0505 108 76.4405 108.41 76.9405 108.71C77.4405 109.01 78.0005 109.16 78.6205 109.16ZM81.7105 113V109.07L82.4005 105.53L81.7105 101.99V98.42H86.2105V113H81.7105ZM95.6223 119.54C94.0223 119.54 92.6123 119.26 91.3923 118.7C90.1923 118.16 89.2423 117.39 88.5423 116.39L91.3623 113.57C91.8823 114.19 92.4623 114.66 93.1023 114.98C93.7623 115.3 94.5523 115.46 95.4723 115.46C96.6123 115.46 97.5023 115.18 98.1423 114.62C98.8023 114.06 99.1323 113.27 99.1323 112.25V108.53L99.9123 105.35L99.2223 102.17V98.42H103.722V112.13C103.722 113.63 103.372 114.93 102.672 116.03C101.972 117.13 101.012 117.99 99.7923 118.61C98.5723 119.23 97.1823 119.54 95.6223 119.54ZM95.4123 112.55C94.0723 112.55 92.8823 112.23 91.8423 111.59C90.8023 110.95 89.9823 110.08 89.3823 108.98C88.7823 107.88 88.4823 106.66 88.4823 105.32C88.4823 103.96 88.7823 102.74 89.3823 101.66C89.9823 100.56 90.8023 99.7 91.8423 99.08C92.8823 98.44 94.0723 98.12 95.4123 98.12C96.4123 98.12 97.3023 98.31 98.0823 98.69C98.8823 99.05 99.5223 99.57 100.002 100.25C100.502 100.91 100.782 101.68 100.842 102.56V108.11C100.782 108.97 100.502 109.74 100.002 110.42C99.5223 111.08 98.8823 111.6 98.0823 111.98C97.2823 112.36 96.3923 112.55 95.4123 112.55ZM96.2823 108.47C96.9223 108.47 97.4723 108.33 97.9323 108.05C98.4123 107.77 98.7723 107.4 99.0123 106.94C99.2723 106.46 99.4023 105.92 99.4023 105.32C99.4023 104.72 99.2723 104.18 99.0123 103.7C98.7723 103.22 98.4123 102.84 97.9323 102.56C97.4723 102.28 96.9223 102.14 96.2823 102.14C95.6623 102.14 95.1123 102.28 94.6323 102.56C94.1523 102.84 93.7823 103.22 93.5223 103.7C93.2623 104.18 93.1323 104.72 93.1323 105.32C93.1323 105.88 93.2623 106.41 93.5223 106.91C93.7823 107.39 94.1423 107.77 94.6023 108.05C95.0823 108.33 95.6423 108.47 96.2823 108.47ZM114.162 113.33C112.582 113.33 111.172 113.01 109.932 112.37C108.712 111.71 107.752 110.8 107.052 109.64C106.352 108.48 106.002 107.17 106.002 105.71C106.002 104.25 106.342 102.95 107.022 101.81C107.722 100.65 108.662 99.74 109.842 99.08C111.022 98.42 112.352 98.09 113.832 98.09C115.272 98.09 116.542 98.4 117.642 99.02C118.742 99.64 119.602 100.5 120.222 101.6C120.862 102.7 121.182 103.96 121.182 105.38C121.182 105.64 121.162 105.92 121.122 106.22C121.102 106.5 121.052 106.83 120.972 107.21L108.402 107.24V104.09L119.022 104.06L117.042 105.38C117.022 104.54 116.892 103.85 116.652 103.31C116.412 102.75 116.052 102.33 115.572 102.05C115.112 101.75 114.542 101.6 113.862 101.6C113.142 101.6 112.512 101.77 111.972 102.11C111.452 102.43 111.042 102.89 110.742 103.49C110.462 104.09 110.322 104.82 110.322 105.68C110.322 106.54 110.472 107.28 110.772 107.9C111.092 108.5 111.532 108.97 112.092 109.31C112.672 109.63 113.352 109.79 114.132 109.79C114.852 109.79 115.502 109.67 116.082 109.43C116.662 109.17 117.172 108.79 117.612 108.29L120.132 110.81C119.412 111.65 118.542 112.28 117.522 112.7C116.502 113.12 115.382 113.33 114.162 113.33Z" fill="#004F88"/>
</svg>
