<svg width="156" height="156" viewBox="0 0 156 156" fill="none" xmlns="http://www.w3.org/2000/svg">
<circle cx="78" cy="78" r="78" fill="#77C5FD"/>
<path d="M36.916 69V64.308H42.866C44.3167 64.308 45.586 64.0247 46.674 63.458C47.762 62.8687 48.6007 62.0187 49.19 60.908C49.7793 59.7973 50.074 58.4827 50.074 56.964C50.074 55.4453 49.768 54.142 49.156 53.054C48.5667 51.966 47.728 51.1273 46.64 50.538C45.5747 49.9487 44.3167 49.654 42.866 49.654H36.746V44.996H42.934C44.7473 44.996 46.4133 45.2907 47.932 45.88C49.4733 46.4467 50.8107 47.274 51.944 48.362C53.1 49.4273 53.984 50.6967 54.596 52.17C55.2307 53.6207 55.548 55.23 55.548 56.998C55.548 58.7433 55.2307 60.3527 54.596 61.826C53.984 63.2993 53.1113 64.5687 51.978 65.634C50.8447 66.6993 49.5073 67.5267 47.966 68.116C46.4473 68.7053 44.7927 69 43.002 69H36.916ZM33.312 69V44.996H38.65V69H33.312ZM66.6288 69.374C64.8381 69.374 63.2401 69.0113 61.8348 68.286C60.4521 67.538 59.3641 66.5067 58.5708 65.192C57.7775 63.8773 57.3808 62.3927 57.3808 60.738C57.3808 59.0833 57.7661 57.61 58.5368 56.318C59.3301 55.0033 60.3955 53.972 61.7328 53.224C63.0701 52.476 64.5775 52.102 66.2548 52.102C67.8868 52.102 69.3261 52.4533 70.5728 53.156C71.8195 53.8587 72.7941 54.8333 73.4968 56.08C74.2221 57.3267 74.5848 58.7547 74.5848 60.364C74.5848 60.6587 74.5621 60.976 74.5168 61.316C74.4941 61.6333 74.4375 62.0073 74.3468 62.438L60.1008 62.472V58.902L72.1368 58.868L69.8928 60.364C69.8701 59.412 69.7228 58.63 69.4508 58.018C69.1788 57.3833 68.7708 56.9073 68.2268 56.59C67.7055 56.25 67.0595 56.08 66.2888 56.08C65.4728 56.08 64.7588 56.2727 64.1468 56.658C63.5575 57.0207 63.0928 57.542 62.7528 58.222C62.4355 58.902 62.2768 59.7293 62.2768 60.704C62.2768 61.6787 62.4468 62.5173 62.7868 63.22C63.1495 63.9 63.6481 64.4327 64.2828 64.818C64.9401 65.1807 65.7108 65.362 66.5948 65.362C67.4108 65.362 68.1475 65.226 68.8048 64.954C69.4621 64.6593 70.0401 64.2287 70.5388 63.662L73.3948 66.518C72.5788 67.47 71.5928 68.184 70.4368 68.66C69.2808 69.136 68.0115 69.374 66.6288 69.374ZM77.0958 69V52.476H82.2978V69H77.0958ZM87.6698 69V59.344C87.6698 58.5053 87.4091 57.8593 86.8878 57.406C86.3891 56.93 85.7658 56.692 85.0178 56.692C84.4964 56.692 84.0318 56.8053 83.6238 57.032C83.2158 57.236 82.8871 57.5307 82.6378 57.916C82.4111 58.3013 82.2978 58.7773 82.2978 59.344L80.2918 58.46C80.2918 57.1453 80.5751 56.0233 81.1418 55.094C81.7084 54.142 82.4791 53.4167 83.4538 52.918C84.4284 52.3967 85.5278 52.136 86.7518 52.136C87.9078 52.136 88.9391 52.3967 89.8458 52.918C90.7751 53.4393 91.5118 54.1647 92.0558 55.094C92.5998 56.0233 92.8718 57.134 92.8718 58.426V69H87.6698ZM98.2438 69V59.344C98.2438 58.5053 97.9831 57.8593 97.4618 57.406C96.9631 56.93 96.3398 56.692 95.5918 56.692C95.0704 56.692 94.6058 56.8053 94.1978 57.032C93.7898 57.236 93.4611 57.5307 93.2118 57.916C92.9851 58.3013 92.8718 58.7773 92.8718 59.344L89.8798 58.936C89.9251 57.5307 90.2538 56.3293 90.8658 55.332C91.5004 54.312 92.3278 53.53 93.3478 52.986C94.3904 52.4193 95.5578 52.136 96.8498 52.136C98.1191 52.136 99.2411 52.408 100.216 52.952C101.213 53.4733 101.995 54.2327 102.562 55.23C103.151 56.2047 103.446 57.3833 103.446 58.766V69H98.2438ZM114.735 69.374C113.035 69.374 111.494 69 110.111 68.252C108.751 67.4813 107.675 66.4387 106.881 65.124C106.088 63.8093 105.691 62.336 105.691 60.704C105.691 59.072 106.088 57.61 106.881 56.318C107.675 55.026 108.751 54.006 110.111 53.258C111.471 52.4873 113.013 52.102 114.735 52.102C116.458 52.102 117.999 52.476 119.359 53.224C120.719 53.972 121.796 55.0033 122.589 56.318C123.383 57.61 123.779 59.072 123.779 60.704C123.779 62.336 123.383 63.8093 122.589 65.124C121.796 66.4387 120.719 67.4813 119.359 68.252C117.999 69 116.458 69.374 114.735 69.374ZM114.735 64.648C115.483 64.648 116.141 64.4893 116.707 64.172C117.274 63.832 117.705 63.3673 117.999 62.778C118.317 62.166 118.475 61.4747 118.475 60.704C118.475 59.9333 118.317 59.2647 117.999 58.698C117.682 58.1087 117.24 57.6553 116.673 57.338C116.129 56.998 115.483 56.828 114.735 56.828C114.01 56.828 113.364 56.998 112.797 57.338C112.231 57.6553 111.789 58.1087 111.471 58.698C111.154 59.2873 110.995 59.9673 110.995 60.738C110.995 61.486 111.154 62.166 111.471 62.778C111.789 63.3673 112.231 63.832 112.797 64.172C113.364 64.4893 114.01 64.648 114.735 64.648Z" fill="#004F88"/>
<path d="M31.312 112V87.996H36.65V112H31.312ZM40.7969 112V95.476H45.9989V112H40.7969ZM51.3709 112V102.344C51.3709 101.505 51.1103 100.859 50.5889 100.406C50.0903 99.93 49.4669 99.692 48.7189 99.692C48.1976 99.692 47.7329 99.8053 47.3249 100.032C46.9169 100.236 46.5883 100.531 46.3389 100.916C46.1123 101.301 45.9989 101.777 45.9989 102.344L43.9929 101.46C43.9929 100.145 44.2763 99.0233 44.8429 98.094C45.4096 97.142 46.1803 96.4167 47.1549 95.918C48.1296 95.3967 49.2289 95.136 50.4529 95.136C51.6089 95.136 52.6403 95.3967 53.5469 95.918C54.4763 96.4393 55.2129 97.1647 55.7569 98.094C56.3009 99.0233 56.5729 100.134 56.5729 101.426V112H51.3709ZM61.9449 112V102.344C61.9449 101.505 61.6843 100.859 61.1629 100.406C60.6643 99.93 60.0409 99.692 59.2929 99.692C58.7716 99.692 58.3069 99.8053 57.8989 100.032C57.4909 100.236 57.1623 100.531 56.9129 100.916C56.6863 101.301 56.5729 101.777 56.5729 102.344L53.5809 101.936C53.6263 100.531 53.9549 99.3293 54.5669 98.332C55.2016 97.312 56.0289 96.53 57.0489 95.986C58.0916 95.4193 59.2589 95.136 60.5509 95.136C61.8203 95.136 62.9423 95.408 63.9169 95.952C64.9143 96.4733 65.6963 97.2327 66.2629 98.23C66.8523 99.2047 67.1469 100.383 67.1469 101.766V112H61.9449ZM77.3825 112.34C75.8639 112.34 74.5039 111.966 73.3025 111.218C72.1239 110.47 71.1832 109.45 70.4805 108.158C69.8005 106.866 69.4605 105.393 69.4605 103.738C69.4605 102.083 69.8005 100.61 70.4805 99.318C71.1832 98.026 72.1239 97.006 73.3025 96.258C74.5039 95.51 75.8639 95.136 77.3825 95.136C78.4932 95.136 79.4905 95.3513 80.3745 95.782C81.2812 96.2127 82.0179 96.8133 82.5845 97.584C83.1512 98.332 83.4685 99.1933 83.5365 100.168V107.308C83.4685 108.283 83.1512 109.155 82.5845 109.926C82.0405 110.674 81.3152 111.263 80.4085 111.694C79.5019 112.125 78.4932 112.34 77.3825 112.34ZM78.4365 107.648C79.5472 107.648 80.4425 107.285 81.1225 106.56C81.8025 105.812 82.1425 104.871 82.1425 103.738C82.1425 102.967 81.9839 102.287 81.6665 101.698C81.3719 101.109 80.9412 100.655 80.3745 100.338C79.8305 99.998 79.1959 99.828 78.4705 99.828C77.7452 99.828 77.0992 99.998 76.5325 100.338C75.9885 100.655 75.5465 101.109 75.2065 101.698C74.8892 102.287 74.7305 102.967 74.7305 103.738C74.7305 104.486 74.8892 105.155 75.2065 105.744C75.5239 106.333 75.9659 106.798 76.5325 107.138C77.0992 107.478 77.7339 107.648 78.4365 107.648ZM81.9385 112V107.546L82.7205 103.534L81.9385 99.522V95.476H87.0385V112H81.9385ZM97.7052 119.412C95.8919 119.412 94.2939 119.095 92.9112 118.46C91.5512 117.848 90.4746 116.975 89.6812 115.842L92.8772 112.646C93.4666 113.349 94.1239 113.881 94.8492 114.244C95.5972 114.607 96.4926 114.788 97.5352 114.788C98.8272 114.788 99.8359 114.471 100.561 113.836C101.309 113.201 101.683 112.306 101.683 111.15V106.934L102.567 103.33L101.785 99.726V95.476H106.885V111.014C106.885 112.714 106.489 114.187 105.695 115.434C104.902 116.681 103.814 117.655 102.431 118.358C101.049 119.061 99.4732 119.412 97.7052 119.412ZM97.4672 111.49C95.9486 111.49 94.5999 111.127 93.4212 110.402C92.2426 109.677 91.3132 108.691 90.6332 107.444C89.9532 106.197 89.6132 104.815 89.6132 103.296C89.6132 101.755 89.9532 100.372 90.6332 99.148C91.3132 97.9013 92.2426 96.9267 93.4212 96.224C94.5999 95.4987 95.9486 95.136 97.4672 95.136C98.6006 95.136 99.6092 95.3513 100.493 95.782C101.4 96.19 102.125 96.7793 102.669 97.55C103.236 98.298 103.553 99.1707 103.621 100.168V106.458C103.553 107.433 103.236 108.305 102.669 109.076C102.125 109.824 101.4 110.413 100.493 110.844C99.5866 111.275 98.5779 111.49 97.4672 111.49ZM98.4532 106.866C99.1786 106.866 99.8019 106.707 100.323 106.39C100.867 106.073 101.275 105.653 101.547 105.132C101.842 104.588 101.989 103.976 101.989 103.296C101.989 102.616 101.842 102.004 101.547 101.46C101.275 100.916 100.867 100.485 100.323 100.168C99.8019 99.8507 99.1786 99.692 98.4532 99.692C97.7506 99.692 97.1272 99.8507 96.5832 100.168C96.0392 100.485 95.6199 100.916 95.3252 101.46C95.0306 102.004 94.8832 102.616 94.8832 103.296C94.8832 103.931 95.0306 104.531 95.3252 105.098C95.6199 105.642 96.0279 106.073 96.5492 106.39C97.0932 106.707 97.7279 106.866 98.4532 106.866ZM118.717 112.374C116.926 112.374 115.328 112.011 113.923 111.286C112.54 110.538 111.452 109.507 110.659 108.192C109.865 106.877 109.469 105.393 109.469 103.738C109.469 102.083 109.854 100.61 110.625 99.318C111.418 98.0033 112.483 96.972 113.821 96.224C115.158 95.476 116.665 95.102 118.343 95.102C119.975 95.102 121.414 95.4533 122.661 96.156C123.907 96.8587 124.882 97.8333 125.585 99.08C126.31 100.327 126.673 101.755 126.673 103.364C126.673 103.659 126.65 103.976 126.605 104.316C126.582 104.633 126.525 105.007 126.435 105.438L112.189 105.472V101.902L124.225 101.868L121.981 103.364C121.958 102.412 121.811 101.63 121.539 101.018C121.267 100.383 120.859 99.9073 120.315 99.59C119.793 99.25 119.147 99.08 118.377 99.08C117.561 99.08 116.847 99.2727 116.235 99.658C115.645 100.021 115.181 100.542 114.841 101.222C114.523 101.902 114.365 102.729 114.365 103.704C114.365 104.679 114.535 105.517 114.875 106.22C115.237 106.9 115.736 107.433 116.371 107.818C117.028 108.181 117.799 108.362 118.683 108.362C119.499 108.362 120.235 108.226 120.893 107.954C121.55 107.659 122.128 107.229 122.627 106.662L125.483 109.518C124.667 110.47 123.681 111.184 122.525 111.66C121.369 112.136 120.099 112.374 118.717 112.374Z" fill="#004F88"/>
</svg>
