<svg width="156" height="156" viewBox="0 0 156 156" fill="none" xmlns="http://www.w3.org/2000/svg">
<circle cx="78" cy="78" r="78" fill="#77C5FD"/>
<path d="M22.392 60.262V56.114H27.56C28.2173 56.114 28.818 55.978 29.362 55.706C29.906 55.434 30.3367 55.0373 30.654 54.516C30.9713 53.9947 31.13 53.36 31.13 52.612C31.13 51.8867 30.9713 51.2633 30.654 50.742C30.3367 50.2207 29.906 49.824 29.362 49.552C28.818 49.28 28.2173 49.144 27.56 49.144H22.392V44.996H28.342C29.8607 44.996 31.232 45.302 32.456 45.914C33.68 46.526 34.6433 47.41 35.346 48.566C36.0713 49.6993 36.434 51.048 36.434 52.612C36.434 54.176 36.0713 55.536 35.346 56.692C34.6433 57.8253 33.68 58.7093 32.456 59.344C31.232 59.956 29.8607 60.262 28.342 60.262H22.392ZM18.312 69V44.996H23.65V69H18.312ZM39.1856 69V52.476H44.3876V69H39.1856ZM44.3876 59.922L42.2116 58.222C42.6423 56.2953 43.3676 54.7993 44.3876 53.734C45.4076 52.6687 46.8243 52.136 48.6376 52.136C49.4309 52.136 50.1223 52.2607 50.7116 52.51C51.3236 52.7367 51.8563 53.0993 52.3096 53.598L49.2156 57.508C48.9889 57.2587 48.7056 57.066 48.3656 56.93C48.0256 56.794 47.6403 56.726 47.2096 56.726C46.3483 56.726 45.6569 56.998 45.1356 57.542C44.6369 58.0633 44.3876 58.8567 44.3876 59.922ZM61.1865 69.374C59.4865 69.374 57.9452 69 56.5625 68.252C55.2025 67.4813 54.1259 66.4387 53.3325 65.124C52.5392 63.8093 52.1425 62.336 52.1425 60.704C52.1425 59.072 52.5392 57.61 53.3325 56.318C54.1259 55.026 55.2025 54.006 56.5625 53.258C57.9225 52.4873 59.4639 52.102 61.1865 52.102C62.9092 52.102 64.4505 52.476 65.8105 53.224C67.1705 53.972 68.2472 55.0033 69.0405 56.318C69.8339 57.61 70.2305 59.072 70.2305 60.704C70.2305 62.336 69.8339 63.8093 69.0405 65.124C68.2472 66.4387 67.1705 67.4813 65.8105 68.252C64.4505 69 62.9092 69.374 61.1865 69.374ZM61.1865 64.648C61.9345 64.648 62.5919 64.4893 63.1585 64.172C63.7252 63.832 64.1559 63.3673 64.4505 62.778C64.7679 62.166 64.9265 61.4747 64.9265 60.704C64.9265 59.9333 64.7679 59.2647 64.4505 58.698C64.1332 58.1087 63.6912 57.6553 63.1245 57.338C62.5805 56.998 61.9345 56.828 61.1865 56.828C60.4612 56.828 59.8152 56.998 59.2485 57.338C58.6819 57.6553 58.2399 58.1087 57.9225 58.698C57.6052 59.2873 57.4465 59.9673 57.4465 60.738C57.4465 61.486 57.6052 62.166 57.9225 62.778C58.2399 63.3673 58.6819 63.832 59.2485 64.172C59.8152 64.4893 60.4612 64.648 61.1865 64.648ZM79.8584 69.34C78.2944 69.34 76.9004 68.966 75.6764 68.218C74.475 67.47 73.523 66.45 72.8204 65.158C72.1404 63.866 71.8004 62.3927 71.8004 60.738C71.8004 59.0833 72.1404 57.61 72.8204 56.318C73.523 55.026 74.475 54.006 75.6764 53.258C76.9004 52.51 78.2944 52.136 79.8584 52.136C80.9917 52.136 82.0117 52.3513 82.9184 52.782C83.8477 53.2127 84.607 53.8133 85.1964 54.584C85.8084 55.332 86.1484 56.1933 86.2164 57.168V64.138C86.1484 65.1127 85.8197 65.9967 85.2304 66.79C84.641 67.5607 83.8817 68.184 82.9524 68.66C82.023 69.1133 80.9917 69.34 79.8584 69.34ZM80.7764 64.648C81.5244 64.648 82.1704 64.4893 82.7144 64.172C83.2584 63.832 83.689 63.3673 84.0064 62.778C84.3237 62.1887 84.4824 61.5087 84.4824 60.738C84.4824 59.9673 84.3237 59.2987 84.0064 58.732C83.7117 58.1427 83.281 57.678 82.7144 57.338C82.1704 56.998 81.5357 56.828 80.8104 56.828C80.085 56.828 79.439 56.998 78.8724 57.338C78.3284 57.678 77.8864 58.1427 77.5464 58.732C77.229 59.3213 77.0704 59.99 77.0704 60.738C77.0704 61.486 77.229 62.1547 77.5464 62.744C77.8637 63.3333 78.3057 63.798 78.8724 64.138C79.439 64.478 80.0737 64.648 80.7764 64.648ZM89.3784 69H84.2784V64.546L85.0604 60.534L84.1764 56.522V44.316H89.3784V69ZM100.385 69.374C98.8664 69.374 97.5177 69.068 96.3391 68.456C95.1831 67.8213 94.2764 66.96 93.6191 65.872C92.9617 64.7613 92.6331 63.492 92.6331 62.064V52.476H97.8351V61.996C97.8351 62.5627 97.9257 63.05 98.1071 63.458C98.3111 63.866 98.6057 64.1833 98.9911 64.41C99.3764 64.6367 99.8411 64.75 100.385 64.75C101.156 64.75 101.768 64.512 102.221 64.036C102.674 63.5373 102.901 62.8573 102.901 61.996V52.476H108.103V62.03C108.103 63.4807 107.774 64.7613 107.117 65.872C106.46 66.96 105.553 67.8213 104.397 68.456C103.241 69.068 101.904 69.374 100.385 69.374ZM119.359 69.374C117.659 69.374 116.118 69 114.735 68.252C113.353 67.504 112.265 66.4727 111.471 65.158C110.678 63.8433 110.281 62.37 110.281 60.738C110.281 59.0833 110.678 57.61 111.471 56.318C112.287 55.0033 113.387 53.972 114.769 53.224C116.152 52.476 117.705 52.102 119.427 52.102C120.719 52.102 121.898 52.3287 122.963 52.782C124.051 53.2127 125.015 53.87 125.853 54.754L122.521 58.086C122.136 57.6553 121.683 57.338 121.161 57.134C120.663 56.93 120.085 56.828 119.427 56.828C118.679 56.828 118.011 56.998 117.421 57.338C116.855 57.6553 116.401 58.1087 116.061 58.698C115.744 59.2647 115.585 59.9333 115.585 60.704C115.585 61.4747 115.744 62.1547 116.061 62.744C116.401 63.3333 116.866 63.798 117.455 64.138C118.045 64.478 118.702 64.648 119.427 64.648C120.107 64.648 120.708 64.5347 121.229 64.308C121.773 64.0587 122.238 63.7187 122.623 63.288L125.921 66.62C125.06 67.5267 124.085 68.218 122.997 68.694C121.909 69.1473 120.697 69.374 119.359 69.374ZM130.317 69V45.642H135.519V69H130.317ZM126.577 56.896V52.476H139.259V56.896H126.577Z" fill="#004F88"/>
<path d="M31.312 112V87.996H36.65V112H31.312ZM40.7969 112V95.476H45.9989V112H40.7969ZM51.3709 112V102.344C51.3709 101.505 51.1103 100.859 50.5889 100.406C50.0903 99.93 49.4669 99.692 48.7189 99.692C48.1976 99.692 47.7329 99.8053 47.3249 100.032C46.9169 100.236 46.5883 100.531 46.3389 100.916C46.1123 101.301 45.9989 101.777 45.9989 102.344L43.9929 101.46C43.9929 100.145 44.2763 99.0233 44.8429 98.094C45.4096 97.142 46.1803 96.4167 47.1549 95.918C48.1296 95.3967 49.2289 95.136 50.4529 95.136C51.6089 95.136 52.6403 95.3967 53.5469 95.918C54.4763 96.4393 55.2129 97.1647 55.7569 98.094C56.3009 99.0233 56.5729 100.134 56.5729 101.426V112H51.3709ZM61.9449 112V102.344C61.9449 101.505 61.6843 100.859 61.1629 100.406C60.6643 99.93 60.0409 99.692 59.2929 99.692C58.7716 99.692 58.3069 99.8053 57.8989 100.032C57.4909 100.236 57.1623 100.531 56.9129 100.916C56.6863 101.301 56.5729 101.777 56.5729 102.344L53.5809 101.936C53.6263 100.531 53.9549 99.3293 54.5669 98.332C55.2016 97.312 56.0289 96.53 57.0489 95.986C58.0916 95.4193 59.2589 95.136 60.5509 95.136C61.8203 95.136 62.9423 95.408 63.9169 95.952C64.9143 96.4733 65.6963 97.2327 66.2629 98.23C66.8523 99.2047 67.1469 100.383 67.1469 101.766V112H61.9449ZM77.3825 112.34C75.8639 112.34 74.5039 111.966 73.3025 111.218C72.1239 110.47 71.1832 109.45 70.4805 108.158C69.8005 106.866 69.4605 105.393 69.4605 103.738C69.4605 102.083 69.8005 100.61 70.4805 99.318C71.1832 98.026 72.1239 97.006 73.3025 96.258C74.5039 95.51 75.8639 95.136 77.3825 95.136C78.4932 95.136 79.4905 95.3513 80.3745 95.782C81.2812 96.2127 82.0179 96.8133 82.5845 97.584C83.1512 98.332 83.4685 99.1933 83.5365 100.168V107.308C83.4685 108.283 83.1512 109.155 82.5845 109.926C82.0405 110.674 81.3152 111.263 80.4085 111.694C79.5019 112.125 78.4932 112.34 77.3825 112.34ZM78.4365 107.648C79.5472 107.648 80.4425 107.285 81.1225 106.56C81.8025 105.812 82.1425 104.871 82.1425 103.738C82.1425 102.967 81.9839 102.287 81.6665 101.698C81.3719 101.109 80.9412 100.655 80.3745 100.338C79.8305 99.998 79.1959 99.828 78.4705 99.828C77.7452 99.828 77.0992 99.998 76.5325 100.338C75.9885 100.655 75.5465 101.109 75.2065 101.698C74.8892 102.287 74.7305 102.967 74.7305 103.738C74.7305 104.486 74.8892 105.155 75.2065 105.744C75.5239 106.333 75.9659 106.798 76.5325 107.138C77.0992 107.478 77.7339 107.648 78.4365 107.648ZM81.9385 112V107.546L82.7205 103.534L81.9385 99.522V95.476H87.0385V112H81.9385ZM97.7052 119.412C95.8919 119.412 94.2939 119.095 92.9112 118.46C91.5512 117.848 90.4746 116.975 89.6812 115.842L92.8772 112.646C93.4666 113.349 94.1239 113.881 94.8492 114.244C95.5972 114.607 96.4926 114.788 97.5352 114.788C98.8272 114.788 99.8359 114.471 100.561 113.836C101.309 113.201 101.683 112.306 101.683 111.15V106.934L102.567 103.33L101.785 99.726V95.476H106.885V111.014C106.885 112.714 106.489 114.187 105.695 115.434C104.902 116.681 103.814 117.655 102.431 118.358C101.049 119.061 99.4732 119.412 97.7052 119.412ZM97.4672 111.49C95.9486 111.49 94.5999 111.127 93.4212 110.402C92.2426 109.677 91.3132 108.691 90.6332 107.444C89.9532 106.197 89.6132 104.815 89.6132 103.296C89.6132 101.755 89.9532 100.372 90.6332 99.148C91.3132 97.9013 92.2426 96.9267 93.4212 96.224C94.5999 95.4987 95.9486 95.136 97.4672 95.136C98.6006 95.136 99.6092 95.3513 100.493 95.782C101.4 96.19 102.125 96.7793 102.669 97.55C103.236 98.298 103.553 99.1707 103.621 100.168V106.458C103.553 107.433 103.236 108.305 102.669 109.076C102.125 109.824 101.4 110.413 100.493 110.844C99.5866 111.275 98.5779 111.49 97.4672 111.49ZM98.4532 106.866C99.1786 106.866 99.8019 106.707 100.323 106.39C100.867 106.073 101.275 105.653 101.547 105.132C101.842 104.588 101.989 103.976 101.989 103.296C101.989 102.616 101.842 102.004 101.547 101.46C101.275 100.916 100.867 100.485 100.323 100.168C99.8019 99.8507 99.1786 99.692 98.4532 99.692C97.7506 99.692 97.1272 99.8507 96.5832 100.168C96.0392 100.485 95.6199 100.916 95.3252 101.46C95.0306 102.004 94.8832 102.616 94.8832 103.296C94.8832 103.931 95.0306 104.531 95.3252 105.098C95.6199 105.642 96.0279 106.073 96.5492 106.39C97.0932 106.707 97.7279 106.866 98.4532 106.866ZM118.717 112.374C116.926 112.374 115.328 112.011 113.923 111.286C112.54 110.538 111.452 109.507 110.659 108.192C109.865 106.877 109.469 105.393 109.469 103.738C109.469 102.083 109.854 100.61 110.625 99.318C111.418 98.0033 112.483 96.972 113.821 96.224C115.158 95.476 116.665 95.102 118.343 95.102C119.975 95.102 121.414 95.4533 122.661 96.156C123.907 96.8587 124.882 97.8333 125.585 99.08C126.31 100.327 126.673 101.755 126.673 103.364C126.673 103.659 126.65 103.976 126.605 104.316C126.582 104.633 126.525 105.007 126.435 105.438L112.189 105.472V101.902L124.225 101.868L121.981 103.364C121.958 102.412 121.811 101.63 121.539 101.018C121.267 100.383 120.859 99.9073 120.315 99.59C119.793 99.25 119.147 99.08 118.377 99.08C117.561 99.08 116.847 99.2727 116.235 99.658C115.645 100.021 115.181 100.542 114.841 101.222C114.523 101.902 114.365 102.729 114.365 103.704C114.365 104.679 114.535 105.517 114.875 106.22C115.237 106.9 115.736 107.433 116.371 107.818C117.028 108.181 117.799 108.362 118.683 108.362C119.499 108.362 120.235 108.226 120.893 107.954C121.55 107.659 122.128 107.229 122.627 106.662L125.483 109.518C124.667 110.47 123.681 111.184 122.525 111.66C121.369 112.136 120.099 112.374 118.717 112.374Z" fill="#004F88"/>
</svg>
