<svg width="941" height="276" viewBox="0 0 941 276" fill="none" xmlns="http://www.w3.org/2000/svg">
<path fill-rule="evenodd" clip-rule="evenodd" d="M157.799 274.512C224.597 264.894 275.927 207.423 275.927 137.964C275.927 61.7684 214.159 0 137.964 0C61.7684 0 0 61.7684 0 137.964C0 207.423 51.3306 264.894 118.128 274.512C125.647 270.94 128.988 268.171 133.831 262.253C67.0637 260.073 13.607 205.261 13.607 137.964C13.607 69.2833 69.2833 13.607 137.964 13.607C206.644 13.607 262.32 69.2833 262.32 137.964C262.32 204.745 209.681 259.231 143.631 262.193C147.229 268.822 150.076 271.758 157.799 274.512Z" fill="#008AEE"/>
<path fill-rule="evenodd" clip-rule="evenodd" d="M193.937 275.927C239.219 275.927 275.927 239.219 275.927 193.937V81.9898C275.927 36.7081 239.219 0 193.937 0C230.511 0 260.16 36.7081 260.16 81.9898V193.937C260.16 230.511 230.511 260.16 193.937 260.16H141.931L163.932 275.927H193.937ZM110.253 275.927L135.085 260.16H81.9898C45.4161 260.16 15.7673 230.511 15.7673 193.937V81.9898C15.7673 36.7081 45.4161 0 81.9898 0C36.7081 0 0 36.7082 0 81.9899V193.937C0 239.219 36.7082 275.927 81.9899 275.927H110.253Z" fill="#008AEE"/>
<path fill-rule="evenodd" clip-rule="evenodd" d="M130.107 224.427L111.948 245.181H121.408V250.287C121.408 253.069 120.276 255.733 118.273 257.664L99.3339 275.927H112.342C125.839 275.927 136.781 264.985 136.781 251.488V246.631C134.301 246.089 132.445 243.881 132.445 241.239V236.509C132.445 233.867 134.301 231.659 136.781 231.117V224.427H130.107Z" fill="#008AEE"/>
<path fill-rule="evenodd" clip-rule="evenodd" d="M146.214 224.427L164.374 245.181H154.913V250.287C154.913 253.069 156.045 255.733 158.048 257.664L176.988 275.927H163.98C150.482 275.927 139.54 264.985 139.54 251.488V246.529C141.82 245.851 143.482 243.739 143.482 241.239V236.509C143.482 234.009 141.82 231.897 139.54 231.219V224.427H146.214Z" fill="#008AEE"/>
<rect x="128.503" y="51.2436" width="19.7091" height="7.88363" rx="3.94182" fill="#008AEE"/>
<path fill-rule="evenodd" clip-rule="evenodd" d="M74.5354 57.5506C74.5354 42.3115 86.8891 29.9578 102.128 29.9578H173.869C189.108 29.9578 201.462 42.3115 201.462 57.5505V208.916C201.462 224.155 189.108 236.509 173.869 236.509L143.482 236.509C143.482 233.461 141.011 230.99 137.963 230.99C134.916 230.99 132.445 233.461 132.445 236.509L102.128 236.509C86.8891 236.509 74.5354 224.155 74.5354 208.916V200.624C74.9958 182.082 78.7328 173.807 91.4853 162.958C95.0512 159.925 99.0782 157.482 103.265 155.387L150.856 131.574L132.904 177.054L126.21 163.841L112.246 170.762C111.314 171.224 110.362 171.689 109.396 172.16C101.705 175.301 96.9861 178.048 92.0773 183.06C88.6753 186.534 87.1492 191.369 87.1492 196.231V208.916C87.1492 217.189 93.8555 223.895 102.128 223.895H173.869C182.142 223.895 188.848 217.189 188.848 208.916V57.5505C188.848 49.2779 182.142 42.5716 173.869 42.5716H102.128C93.8555 42.5716 87.1492 49.2779 87.1492 57.5506V123.327C87.1492 125.725 89.0414 127.771 91.3978 127.329C92.8998 127.047 94.3757 126.564 95.7851 125.879L101.734 122.985L95.427 109.583L142.335 123.379L104.491 141.201C98.631 143.96 92.6249 144.517 86.3908 142.817C77.323 138.85 75.6228 134.883 74.5354 126.508V57.5506Z" fill="#008AEE"/>
<path d="M330.645 249L330.195 245.85H323.195L321.57 249H317.795L327.02 231.5H331.295L334.37 249H330.645ZM324.87 242.625H329.72L328.67 235.325L324.87 242.625ZM340.469 245.7H347.144L346.569 249H336.444L337.019 245.7L339.519 231.5H342.969L340.469 245.7ZM352.929 245.7H359.604L359.029 249H348.904L349.479 245.7L351.979 231.5H355.429L352.929 245.7ZM384.689 231.5L376.264 240.1L381.664 249H378.039L372.914 240.55L371.439 249H367.989L371.064 231.5H374.514L373.189 239L380.564 231.5H384.689ZM386.795 231.5H390.245L387.17 249H383.72L386.795 231.5ZM390.785 249L393.86 231.5H396.46L402.085 242.425L403.985 231.5H407.435L404.36 249H401.76L396.16 238.075L394.235 249H390.785ZM418.006 231.5C420.306 231.5 422.139 232.392 423.506 234.175C424.873 235.942 425.339 238.05 424.906 240.5C424.473 242.983 423.323 245.025 421.456 246.625C419.606 248.208 417.431 249 414.931 249H407.981L411.056 231.5H418.006ZM421.606 240.15C421.873 238.55 421.623 237.258 420.856 236.275C420.089 235.292 418.948 234.8 417.431 234.8H413.931L412.006 245.7H415.306C416.906 245.7 418.281 245.183 419.431 244.15C420.598 243.117 421.323 241.783 421.606 240.15ZM432.037 249.35C430.27 249.35 428.82 248.967 427.687 248.2C426.57 247.417 425.853 246.358 425.537 245.025L428.662 243.425C429.095 245.158 430.312 246.025 432.312 246.025C433.228 246.025 433.945 245.858 434.462 245.525C434.995 245.192 435.312 244.75 435.412 244.2C435.545 243.567 435.362 243.075 434.862 242.725C434.378 242.375 433.528 242 432.312 241.6C430.678 241.05 429.445 240.358 428.612 239.525C427.795 238.675 427.52 237.483 427.787 235.95C428.07 234.367 428.812 233.175 430.012 232.375C431.228 231.558 432.612 231.15 434.162 231.15C435.595 231.15 436.82 231.492 437.837 232.175C438.853 232.858 439.587 233.817 440.037 235.05L437.012 236.65C436.395 235.2 435.353 234.475 433.887 234.475C433.187 234.475 432.603 234.625 432.137 234.925C431.687 235.225 431.403 235.633 431.287 236.15C431.153 236.767 431.328 237.258 431.812 237.625C432.295 237.975 433.112 238.358 434.262 238.775C434.562 238.892 434.812 238.983 435.012 239.05C435.212 239.117 435.462 239.217 435.762 239.35C436.062 239.467 436.303 239.583 436.487 239.7C436.687 239.8 436.912 239.933 437.162 240.1C437.412 240.25 437.62 240.408 437.787 240.575C437.953 240.725 438.12 240.908 438.287 241.125C438.47 241.325 438.603 241.542 438.687 241.775C438.787 242.008 438.87 242.267 438.937 242.55C439.003 242.817 439.037 243.117 439.037 243.45C439.037 243.783 439.003 244.133 438.937 244.5C438.653 246.067 437.887 247.267 436.637 248.1C435.403 248.933 433.87 249.35 432.037 249.35ZM455.81 249.35C453.277 249.35 451.268 248.433 449.785 246.6C448.302 244.75 447.793 242.55 448.26 240C448.693 237.417 449.885 235.3 451.835 233.65C453.802 231.983 456.127 231.15 458.81 231.15C461.31 231.15 463.302 232.075 464.785 233.925C466.285 235.775 466.81 237.975 466.36 240.525C465.91 243.108 464.71 245.225 462.76 246.875C460.81 248.525 458.493 249.35 455.81 249.35ZM456.21 245.975C457.843 245.975 459.293 245.442 460.56 244.375C461.843 243.308 462.635 241.942 462.935 240.275C463.218 238.608 462.918 237.233 462.035 236.15C461.152 235.05 459.902 234.5 458.285 234.5C456.668 234.5 455.235 235.042 453.985 236.125C452.752 237.192 451.985 238.567 451.685 240.25C451.385 241.917 451.66 243.292 452.51 244.375C453.377 245.442 454.61 245.975 456.21 245.975ZM480.609 234.8H473.634L472.909 238.95H479.709L479.109 242.25H472.309L471.134 249H467.684L470.759 231.5H481.209L480.609 234.8ZM493.848 249.35C492.081 249.35 490.631 248.967 489.498 248.2C488.381 247.417 487.665 246.358 487.348 245.025L490.473 243.425C490.906 245.158 492.123 246.025 494.123 246.025C495.04 246.025 495.756 245.858 496.273 245.525C496.806 245.192 497.123 244.75 497.223 244.2C497.356 243.567 497.173 243.075 496.673 242.725C496.19 242.375 495.34 242 494.123 241.6C492.49 241.05 491.256 240.358 490.423 239.525C489.606 238.675 489.331 237.483 489.598 235.95C489.881 234.367 490.623 233.175 491.823 232.375C493.04 231.558 494.423 231.15 495.973 231.15C497.406 231.15 498.631 231.492 499.648 232.175C500.665 232.858 501.398 233.817 501.848 235.05L498.823 236.65C498.206 235.2 497.165 234.475 495.698 234.475C494.998 234.475 494.415 234.625 493.948 234.925C493.498 235.225 493.215 235.633 493.098 236.15C492.965 236.767 493.14 237.258 493.623 237.625C494.106 237.975 494.923 238.358 496.073 238.775C496.373 238.892 496.623 238.983 496.823 239.05C497.023 239.117 497.273 239.217 497.573 239.35C497.873 239.467 498.115 239.583 498.298 239.7C498.498 239.8 498.723 239.933 498.973 240.1C499.223 240.25 499.431 240.408 499.598 240.575C499.765 240.725 499.931 240.908 500.098 241.125C500.281 241.325 500.415 241.542 500.498 241.775C500.598 242.008 500.681 242.267 500.748 242.55C500.815 242.817 500.848 243.117 500.848 243.45C500.848 243.783 500.815 244.133 500.748 244.5C500.465 246.067 499.698 247.267 498.448 248.1C497.215 248.933 495.681 249.35 493.848 249.35ZM522.749 231.5L519.674 249H516.249L518.249 237.625L511.799 245.775H511.399L508.024 237.525L505.999 249H502.549L505.624 231.5H509.149L512.449 239.875L518.949 231.5H522.749ZM534.585 249L534.135 245.85H527.135L525.51 249H521.735L530.96 231.5H535.235L538.31 249H534.585ZM528.81 242.625H533.66L532.61 235.325L528.81 242.625ZM555.259 237.55C555.043 238.717 554.559 239.733 553.809 240.6C553.076 241.467 552.159 242.092 551.059 242.475L553.709 249H550.209L547.784 242.925H544.909L543.834 249H540.384L543.459 231.5H550.284C551.868 231.5 553.159 232.108 554.159 233.325C555.176 234.542 555.543 235.95 555.259 237.55ZM550.834 239.15C551.368 238.65 551.701 238.033 551.834 237.3C551.968 236.567 551.834 235.958 551.434 235.475C551.034 234.975 550.459 234.725 549.709 234.725H546.334L545.434 239.9H548.984C549.684 239.9 550.301 239.65 550.834 239.15ZM570.18 231.5L569.605 234.8H564.88L562.38 249H558.93L561.43 234.8H556.73L557.305 231.5H570.18ZM585.381 231.5C587.148 231.5 588.514 232.083 589.481 233.25C590.448 234.4 590.798 235.833 590.531 237.55C590.281 239.233 589.523 240.608 588.256 241.675C586.989 242.725 585.373 243.25 583.406 243.25H580.481L579.481 249H576.031L579.106 231.5H585.381ZM587.106 237.3C587.256 236.517 587.139 235.892 586.756 235.425C586.373 234.958 585.739 234.725 584.856 234.725H581.981L581.056 240.025H583.756C584.673 240.025 585.423 239.775 586.006 239.275C586.589 238.775 586.956 238.117 587.106 237.3ZM604.177 231.5H607.602L604.527 249H601.102L602.377 241.75H595.877L594.602 249H591.152L594.227 231.5H597.677L596.452 238.45H602.952L604.177 231.5ZM616.478 249.35C613.945 249.35 611.936 248.433 610.453 246.6C608.97 244.75 608.461 242.55 608.928 240C609.361 237.417 610.553 235.3 612.503 233.65C614.47 231.983 616.795 231.15 619.478 231.15C621.978 231.15 623.97 232.075 625.453 233.925C626.953 235.775 627.478 237.975 627.028 240.525C626.578 243.108 625.378 245.225 623.428 246.875C621.478 248.525 619.161 249.35 616.478 249.35ZM616.878 245.975C618.511 245.975 619.961 245.442 621.228 244.375C622.511 243.308 623.303 241.942 623.603 240.275C623.886 238.608 623.586 237.233 622.703 236.15C621.82 235.05 620.57 234.5 618.953 234.5C617.336 234.5 615.903 235.042 614.653 236.125C613.42 237.192 612.653 238.567 612.353 240.25C612.053 241.917 612.328 243.292 613.178 244.375C614.045 245.442 615.278 245.975 616.878 245.975ZM628.352 249L631.427 231.5H634.027L639.652 242.425L641.552 231.5H645.002L641.927 249H639.327L633.727 238.075L631.802 249H628.352ZM658.748 234.8H651.498L650.823 238.55H657.473L656.873 241.775H650.273L649.573 245.7H656.948L656.373 249H645.548L648.623 231.5H659.323L658.748 234.8ZM680.205 236.55C679.989 238 679.247 239.158 677.98 240.025C679.264 240.925 679.789 242.267 679.555 244.05C679.339 245.517 678.664 246.708 677.53 247.625C676.414 248.542 674.914 249 673.03 249H665.805L668.88 231.5H675.505C677.039 231.5 678.264 231.975 679.18 232.925C680.097 233.875 680.439 235.083 680.205 236.55ZM675.105 234.725H671.755L671.08 238.575H674.455C675.039 238.575 675.539 238.392 675.955 238.025C676.389 237.658 676.655 237.2 676.755 236.65C676.855 236.117 676.755 235.667 676.455 235.3C676.172 234.917 675.722 234.725 675.105 234.725ZM676.18 243.7C676.28 243.1 676.172 242.608 675.855 242.225C675.539 241.842 675.064 241.65 674.43 241.65H670.555L669.83 245.775H673.655C674.305 245.775 674.855 245.583 675.305 245.2C675.772 244.8 676.064 244.3 676.18 243.7ZM687.945 249.35C685.878 249.35 684.278 248.783 683.145 247.65C682.028 246.517 681.637 245.058 681.97 243.275L684.045 231.5H687.47L685.445 243C685.295 243.9 685.428 244.625 685.845 245.175C686.278 245.708 687.053 245.975 688.17 245.975C689.287 245.975 690.153 245.7 690.77 245.15C691.403 244.6 691.795 243.883 691.945 243L693.97 231.5H697.42L695.345 243.275C694.995 245.242 694.153 246.75 692.82 247.8C691.487 248.833 689.862 249.35 687.945 249.35ZM713.888 231.5L706.438 241.25L705.063 249H701.638L703.013 241.2L698.988 231.5H702.663L705.113 237.95L709.788 231.5H713.888ZM712.634 243L713.184 239.9H722.559L722.009 243H712.634ZM730.512 249.35C728.745 249.35 727.295 248.967 726.162 248.2C725.045 247.417 724.329 246.358 724.012 245.025L727.137 243.425C727.57 245.158 728.787 246.025 730.787 246.025C731.704 246.025 732.42 245.858 732.937 245.525C733.47 245.192 733.787 244.75 733.887 244.2C734.02 243.567 733.837 243.075 733.337 242.725C732.854 242.375 732.004 242 730.787 241.6C729.154 241.05 727.92 240.358 727.087 239.525C726.27 238.675 725.995 237.483 726.262 235.95C726.545 234.367 727.287 233.175 728.487 232.375C729.704 231.558 731.087 231.15 732.637 231.15C734.07 231.15 735.295 231.492 736.312 232.175C737.329 232.858 738.062 233.817 738.512 235.05L735.487 236.65C734.87 235.2 733.829 234.475 732.362 234.475C731.662 234.475 731.079 234.625 730.612 234.925C730.162 235.225 729.879 235.633 729.762 236.15C729.629 236.767 729.804 237.258 730.287 237.625C730.77 237.975 731.587 238.358 732.737 238.775C733.037 238.892 733.287 238.983 733.487 239.05C733.687 239.117 733.937 239.217 734.237 239.35C734.537 239.467 734.779 239.583 734.962 239.7C735.162 239.8 735.387 239.933 735.637 240.1C735.887 240.25 736.095 240.408 736.262 240.575C736.429 240.725 736.595 240.908 736.762 241.125C736.945 241.325 737.079 241.542 737.162 241.775C737.262 242.008 737.345 242.267 737.412 242.55C737.479 242.817 737.512 243.117 737.512 243.45C737.512 243.783 737.479 244.133 737.412 244.5C737.129 246.067 736.362 247.267 735.112 248.1C733.879 248.933 732.345 249.35 730.512 249.35ZM752.413 234.8H745.163L744.488 238.55H751.138L750.538 241.775H743.938L743.238 245.7H750.613L750.038 249H739.213L742.288 231.5H752.988L752.413 234.8ZM756.87 245.7H763.545L762.97 249H752.845L753.42 245.7L755.92 231.5H759.37L756.87 245.7ZM769.33 245.7H776.005L775.43 249H765.305L765.88 245.7L768.38 231.5H771.83L769.33 245.7ZM799.815 241.925C799.149 243.408 798.39 244.658 797.54 245.675L799.465 248.275L796.565 249.8L795.14 247.875C793.64 248.858 791.965 249.35 790.115 249.35C788.232 249.35 786.799 248.825 785.815 247.775C784.849 246.725 784.515 245.408 784.815 243.825C785.199 241.758 786.507 240.158 788.74 239.025C788.224 238.008 788.065 236.942 788.265 235.825C788.515 234.392 789.19 233.258 790.29 232.425C791.407 231.575 792.749 231.15 794.315 231.15C797.049 231.15 798.832 232.4 799.665 234.9L796.54 236.55C796.107 235.183 795.274 234.5 794.04 234.5C793.44 234.5 792.915 234.667 792.465 235C792.015 235.333 791.74 235.8 791.64 236.4C791.524 237.117 791.857 238 792.64 239.05L795.64 243.1C796.174 242.233 796.632 241.267 797.015 240.2L799.815 241.925ZM790.815 246.175C791.715 246.175 792.557 245.942 793.34 245.475L790.365 241.45L790.265 241.3C789.165 241.85 788.507 242.667 788.29 243.75C788.174 244.467 788.332 245.05 788.765 245.5C789.215 245.95 789.899 246.175 790.815 246.175ZM821.68 234.8H814.43L813.755 238.55H820.405L819.805 241.775H813.205L812.505 245.7H819.88L819.305 249H808.48L811.555 231.5H822.255L821.68 234.8ZM838.212 231.5L831.612 240.175L835.437 249H831.712L829.237 243.275L824.887 249H820.787L827.762 239.85L824.162 231.5H827.862L830.137 236.75L834.137 231.5H838.212ZM845.244 249.35C843.494 249.35 841.977 248.925 840.694 248.075C839.41 247.225 838.494 246.092 837.944 244.675C837.41 243.242 837.285 241.683 837.569 240C837.985 237.433 839.169 235.317 841.119 233.65C843.085 231.983 845.352 231.15 847.919 231.15C849.585 231.15 851.019 231.517 852.219 232.25C853.435 232.983 854.335 234 854.919 235.3L851.769 236.95C850.985 235.317 849.594 234.5 847.594 234.5C845.927 234.5 844.477 235.033 843.244 236.1C842.027 237.167 841.277 238.55 840.994 240.25C840.694 241.933 840.96 243.308 841.794 244.375C842.627 245.442 843.852 245.975 845.469 245.975C847.635 245.975 849.327 245.125 850.544 243.425L853.369 245.25C852.419 246.517 851.227 247.517 849.794 248.25C848.377 248.983 846.86 249.35 845.244 249.35ZM868.211 231.5H871.636L868.561 249H865.136L866.411 241.75H859.911L858.636 249H855.186L858.261 231.5H861.711L860.486 238.45H866.986L868.211 231.5ZM883.462 249L883.012 245.85H876.012L874.387 249H870.612L879.837 231.5H884.112L887.187 249H883.462ZM877.687 242.625H882.537L881.487 235.325L877.687 242.625ZM889.261 249L892.336 231.5H894.936L900.561 242.425L902.461 231.5H905.911L902.836 249H900.236L894.636 238.075L892.711 249H889.261ZM925.308 239.6L925.083 240.95C924.649 243.5 923.516 245.542 921.683 247.075C919.849 248.592 917.641 249.35 915.058 249.35C912.358 249.35 910.266 248.442 908.783 246.625C907.299 244.792 906.783 242.575 907.233 239.975C907.666 237.425 908.858 235.317 910.808 233.65C912.758 231.983 915.024 231.15 917.608 231.15C919.341 231.15 920.824 231.525 922.058 232.275C923.308 233.008 924.258 234.05 924.908 235.4L921.758 237.05C920.874 235.35 919.383 234.5 917.283 234.5C915.599 234.5 914.141 235.033 912.908 236.1C911.691 237.15 910.941 238.525 910.658 240.225C910.358 241.925 910.633 243.308 911.483 244.375C912.349 245.442 913.649 245.975 915.383 245.975C918.249 245.975 920.166 244.867 921.133 242.65H916.008L916.533 239.6H925.308ZM939.686 234.8H932.436L931.761 238.55H938.411L937.811 241.775H931.211L930.511 245.7H937.886L937.311 249H926.486L929.561 231.5H940.261L939.686 234.8Z" fill="black"/>
<path d="M383.485 60.48H350.485L347.965 74.52H378.085L374.845 92.52H344.845L342.205 107.52H375.805L372.565 126H319.765L334.525 42H386.725L383.485 60.48ZM462.958 42L431.758 83.76L449.398 126H428.518L418.318 101.76L400.198 126H377.398L410.158 82.2L393.358 42H414.238L423.598 64.2L440.158 42H462.958ZM494.167 127.68C481.367 127.68 471.447 123.32 464.407 114.6C457.367 105.88 454.887 95.28 456.967 82.8C459.047 70.48 464.727 60.32 474.007 52.32C483.367 44.32 494.287 40.32 506.767 40.32C514.767 40.32 521.607 42.04 527.287 45.48C533.047 48.92 537.327 53.72 540.127 59.88L522.487 69.12C519.207 62.4 513.287 59.04 504.727 59.04C497.447 59.04 491.167 61.32 485.887 65.88C480.687 70.44 477.447 76.48 476.167 84C474.887 91.44 476.007 97.48 479.527 102.12C483.047 106.68 488.287 108.96 495.247 108.96C504.447 108.96 511.727 105.4 517.087 98.28L532.687 108.48C528.127 114.48 522.487 119.2 515.767 122.64C509.047 126 501.847 127.68 494.167 127.68ZM598.914 42H618.114L603.354 126H584.154L590.034 92.64H563.634L557.754 126H538.554L553.314 42H572.514L566.874 74.16H593.274L598.914 42ZM671.173 126L669.493 112.8H638.293L631.573 126H610.573L653.893 42H678.373L692.173 126H671.173ZM647.293 94.8H667.333L663.373 63L647.293 94.8ZM699.335 126L714.095 42H728.495L752.615 89.16L760.895 42H780.095L765.335 126H750.935L726.935 78.84L718.535 126H699.335ZM871.166 79.2L869.966 86.4C867.806 99.28 862.246 109.4 853.286 116.76C844.406 124.04 833.726 127.68 821.246 127.68C808.286 127.68 798.246 123.32 791.126 114.6C784.086 105.88 781.606 95.28 783.686 82.8C785.766 70.48 791.446 60.32 800.726 52.32C810.086 44.32 821.006 40.32 833.486 40.32C841.806 40.32 848.966 42.08 854.966 45.6C860.966 49.12 865.526 54.08 868.646 60.48L851.006 69.72C847.166 62.6 840.646 59.04 831.446 59.04C824.166 59.04 817.886 61.32 812.606 65.88C807.406 70.44 804.166 76.48 802.886 84C801.526 91.52 802.686 97.56 806.366 102.12C810.126 106.68 815.726 108.96 823.166 108.96C835.166 108.96 843.366 104.64 847.766 96H826.166L829.046 79.2H871.166ZM937.547 60.48H904.547L902.027 74.52H932.147L928.907 92.52H898.907L896.267 107.52H929.867L926.627 126H873.827L888.587 42H940.787L937.547 60.48Z" fill="black"/>
<path d="M326.289 205.984L320.011 145.784H331.793L335.663 190.418L356.131 145.784H366.279L371.095 190.418L390.531 145.784H403.345L375.911 205.984H362.409L358.023 166.252L339.791 205.984H326.289ZM425.936 207.188C417.221 207.188 410.312 204.034 405.21 197.728C400.107 191.364 398.358 183.796 399.964 175.024C401.454 166.137 405.554 158.856 412.262 153.18C419.027 147.446 427.025 144.58 436.256 144.58C444.856 144.58 451.707 147.762 456.81 154.126C461.97 160.49 463.776 168.058 462.228 176.83C460.68 185.716 456.552 192.998 449.844 198.674C443.136 204.35 435.166 207.188 425.936 207.188ZM427.312 195.578C432.93 195.578 437.918 193.743 442.276 190.074C446.69 186.404 449.414 181.703 450.446 175.97C451.42 170.236 450.388 165.506 447.35 161.78C444.311 157.996 440.011 156.104 434.45 156.104C428.888 156.104 423.958 157.967 419.658 161.694C415.415 165.363 412.778 170.093 411.746 175.884C410.714 181.617 411.66 186.347 414.584 190.074C417.565 193.743 421.808 195.578 427.312 195.578ZM516.663 166.596C515.918 170.609 514.255 174.106 511.675 177.088C509.152 180.069 505.999 182.219 502.215 183.538L511.331 205.984H499.291L490.949 185.086H481.059L477.361 205.984H465.493L476.071 145.784H499.549C504.996 145.784 509.439 147.876 512.879 152.062C516.376 156.247 517.638 161.092 516.663 166.596ZM501.441 172.1C503.276 170.38 504.422 168.258 504.881 165.736C505.34 163.213 504.881 161.12 503.505 159.458C502.129 157.738 500.151 156.878 497.571 156.878H485.961L482.865 174.68H495.077C497.485 174.68 499.606 173.82 501.441 172.1ZM532.165 194.632H555.127L553.149 205.984H518.319L520.297 194.632L528.897 145.784H540.765L532.165 194.632ZM594.378 145.784C602.29 145.784 608.596 148.851 613.298 154.986C617.999 161.063 619.604 168.316 618.114 176.744C616.623 185.286 612.667 192.31 606.246 197.814C599.882 203.26 592.4 205.984 583.8 205.984H559.892L570.47 145.784H594.378ZM606.762 175.54C607.679 170.036 606.819 165.592 604.182 162.21C601.544 158.827 597.617 157.136 592.4 157.136H580.36L573.738 194.632H585.09C590.594 194.632 595.324 192.854 599.28 189.3C603.293 185.745 605.787 181.158 606.762 175.54Z" fill="#008AEE"/>
</svg>
