<svg width="276" height="276" viewBox="0 0 276 276" fill="none" xmlns="http://www.w3.org/2000/svg">
<path fill-rule="evenodd" clip-rule="evenodd" d="M157.799 274.512C224.597 264.894 275.927 207.423 275.927 137.964C275.927 61.7684 214.159 0 137.964 0C61.7684 0 0 61.7684 0 137.964C0 207.423 51.3306 264.894 118.128 274.512C125.647 270.94 128.988 268.171 133.831 262.253C67.0637 260.073 13.607 205.261 13.607 137.964C13.607 69.2833 69.2833 13.607 137.964 13.607C206.644 13.607 262.32 69.2833 262.32 137.964C262.32 204.745 209.681 259.231 143.631 262.193C147.229 268.822 150.076 271.758 157.799 274.512Z" fill="#008AEE"/>
<path fill-rule="evenodd" clip-rule="evenodd" d="M193.937 275.927C239.219 275.927 275.927 239.219 275.927 193.937V81.9898C275.927 36.7081 239.219 0 193.937 0C230.511 0 260.16 36.7081 260.16 81.9898V193.937C260.16 230.511 230.511 260.16 193.937 260.16H141.931L163.932 275.927H193.937ZM110.253 275.927L135.085 260.16H81.9898C45.4161 260.16 15.7673 230.511 15.7673 193.937V81.9898C15.7673 36.7081 45.4161 0 81.9898 0C36.7081 0 0 36.7082 0 81.9899V193.937C0 239.219 36.7082 275.927 81.9899 275.927H110.253Z" fill="#008AEE"/>
<path fill-rule="evenodd" clip-rule="evenodd" d="M130.107 224.427L111.948 245.181H121.408V250.287C121.408 253.069 120.276 255.733 118.273 257.664L99.3339 275.927H112.342C125.839 275.927 136.781 264.985 136.781 251.488V246.631C134.301 246.089 132.445 243.881 132.445 241.239V236.509C132.445 233.867 134.301 231.659 136.781 231.117V224.427H130.107Z" fill="#008AEE"/>
<path fill-rule="evenodd" clip-rule="evenodd" d="M146.214 224.427L164.374 245.181H154.913V250.287C154.913 253.069 156.045 255.733 158.048 257.664L176.988 275.927H163.98C150.482 275.927 139.54 264.985 139.54 251.488V246.529C141.82 245.851 143.482 243.739 143.482 241.239V236.509C143.482 234.009 141.82 231.897 139.54 231.219V224.427H146.214Z" fill="#008AEE"/>
<rect x="128.503" y="51.2437" width="19.7091" height="7.88363" rx="3.94182" fill="#008AEE"/>
<path fill-rule="evenodd" clip-rule="evenodd" d="M74.5354 57.5506C74.5354 42.3116 86.8891 29.9579 102.128 29.9579H173.869C189.108 29.9579 201.462 42.3116 201.462 57.5506V208.916C201.462 224.155 189.108 236.509 173.869 236.509L143.482 236.509C143.482 233.461 141.011 230.99 137.963 230.99C134.916 230.99 132.445 233.461 132.445 236.509L102.128 236.509C86.8891 236.509 74.5354 224.155 74.5354 208.916V200.624C74.9958 182.082 78.7328 173.807 91.4853 162.958C95.0512 159.925 99.0782 157.482 103.265 155.387L150.856 131.574L132.904 177.054L126.21 163.841L112.246 170.762C111.314 171.224 110.362 171.689 109.396 172.16C101.705 175.301 96.9861 178.048 92.0773 183.06C88.6753 186.534 87.1492 191.369 87.1492 196.231V208.916C87.1492 217.189 93.8555 223.895 102.128 223.895H173.869C182.142 223.895 188.848 217.189 188.848 208.916V57.5506C188.848 49.278 182.142 42.5717 173.869 42.5717H102.128C93.8555 42.5717 87.1492 49.278 87.1492 57.5506V123.327C87.1492 125.725 89.0414 127.771 91.3978 127.329C92.8998 127.047 94.3757 126.564 95.7851 125.879L101.734 122.985L95.427 109.583L142.335 123.379L104.491 141.201C98.631 143.96 92.6249 144.518 86.3908 142.817C77.323 138.85 75.6228 134.883 74.5354 126.508V57.5506Z" fill="#008AEE"/>
</svg>
