<svg width="100" height="100" viewBox="0 0 100 100" fill="none" xmlns="http://www.w3.org/2000/svg">
<circle cx="50" cy="50" r="50" fill="#FFDDD1"/>
<g clip-path="url(#clip0_799_1382)">
<path d="M84.9956 50.0022C84.9956 56.9241 82.9431 63.6906 79.0975 69.446C75.2518 75.2013 69.7859 79.6871 63.3909 82.336C56.9959 84.9849 49.959 85.678 43.1701 84.3276C36.3812 82.9772 30.1452 79.6439 25.2506 74.7494C20.3561 69.8549 17.0229 63.6189 15.6725 56.8299C14.3221 50.041 15.0152 43.0041 17.6641 36.6091C20.313 30.2141 24.7987 24.7482 30.5541 20.9026C36.3095 17.057 43.0759 15.0044 49.9978 15.0044C50.578 15.0044 51.1343 15.2349 51.5445 15.6451C51.9547 16.0553 52.1852 16.6116 52.1852 17.1918C52.1852 17.7719 51.9547 18.3283 51.5445 18.7385C51.1343 19.1487 50.578 19.3791 49.9978 19.3791C43.9412 19.3791 38.0205 21.1751 32.9846 24.5401C27.9486 27.905 24.0236 32.6876 21.7058 38.2833C19.388 43.8789 18.7816 50.0362 19.9632 55.9765C21.1448 61.9168 24.0613 67.3733 28.344 71.656C32.6267 75.9387 38.0833 78.8553 44.0236 80.0369C49.9639 81.2185 56.1211 80.612 61.7168 78.2943C67.3124 75.9765 72.0951 72.0514 75.46 67.0155C78.8249 61.9795 80.6209 56.0589 80.6209 50.0022C80.6209 49.4221 80.8514 48.8657 81.2616 48.4555C81.6718 48.0453 82.2282 47.8149 82.8083 47.8149C83.3884 47.8149 83.9448 48.0453 84.355 48.4555C84.7652 48.8657 84.9956 49.4221 84.9956 50.0022ZM49.9978 32.5033C50.578 32.5033 51.1343 32.2729 51.5445 31.8626C51.9547 31.4524 52.1852 30.8961 52.1852 30.3159C52.1852 29.7358 51.9547 29.1795 51.5445 28.7692C51.1343 28.359 50.578 28.1286 49.9978 28.1286C45.6716 28.1286 41.4426 29.4114 37.8455 31.815C34.2484 34.2185 31.4448 37.6347 29.7892 41.6315C28.1337 45.6284 27.7005 50.0265 28.5445 54.2696C29.3885 58.5126 31.4718 62.4101 34.5308 65.4692C37.5899 68.5283 41.4874 70.6116 45.7305 71.4556C49.9736 72.2996 54.3716 71.8664 58.3685 70.2108C62.3654 68.5553 65.7816 65.7517 68.1851 62.1546C70.5886 58.5575 71.8715 54.3284 71.8715 50.0022C71.8715 49.4221 71.641 48.8657 71.2308 48.4555C70.8206 48.0453 70.2642 47.8149 69.6841 47.8149C69.104 47.8149 68.5476 48.0453 68.1374 48.4555C67.7272 48.8657 67.4967 49.4221 67.4967 50.0022C67.4967 53.4632 66.4704 56.8464 64.5476 59.7241C62.6248 62.6018 59.8919 64.8447 56.6944 66.1691C53.4969 67.4935 49.9784 67.8401 46.584 67.1649C43.1895 66.4897 40.0715 64.8231 37.6242 62.3758C35.177 59.9285 33.5104 56.8105 32.8352 53.4161C32.16 50.0216 32.5065 46.5032 33.8309 43.3057C35.1554 40.1082 37.3983 37.3752 40.276 35.4524C43.1536 33.5296 46.5369 32.5033 49.9978 32.5033ZM52.9333 53.2001C52.5653 53.5512 52.139 53.8355 51.6734 54.0401C51.1427 54.2624 50.5732 54.3769 49.9978 54.3769C49.4225 54.3769 48.8529 54.2624 48.3223 54.0401C47.8567 53.8355 47.4303 53.5512 47.0624 53.2001C47.0143 53.1564 46.953 53.1433 46.9049 53.0951C46.8568 53.047 46.8524 52.9989 46.813 52.9552C46.046 52.1635 45.617 51.1045 45.617 50.0022C45.617 48.8999 46.046 47.8409 46.813 47.0493C46.8524 47.0055 46.8612 46.9487 46.9049 46.9093L52.2333 41.5809C51.5059 41.3734 50.7542 41.263 49.9978 41.2528C48.129 41.2218 46.2979 41.7801 44.7643 42.8484C43.2307 43.9167 42.0724 45.4409 41.4537 47.2046C40.8351 48.9683 40.7875 50.882 41.3178 52.6742C41.8481 54.4665 42.9293 56.0463 44.408 57.1895C45.8866 58.3326 47.6877 58.9812 49.5558 59.043C51.4238 59.1049 53.2639 58.577 54.815 57.5342C56.3661 56.4914 57.5495 54.9867 58.1972 53.2334C58.8449 51.4802 58.9241 49.5675 58.4236 47.7667L53.0908 53.0951C53.0601 53.1433 52.9814 53.1564 52.9333 53.2001ZM54.3726 39.4416V30.3159C54.372 30.0285 54.4282 29.7438 54.5378 29.4781C54.6474 29.2123 54.8083 28.9708 55.0113 28.7673L68.1355 15.6431C68.4414 15.3364 68.8315 15.1275 69.2563 15.0427C69.6811 14.958 70.1215 15.0013 70.5217 15.1672C70.9219 15.3331 71.2638 15.6141 71.5041 15.9745C71.7444 16.3349 71.8722 16.7586 71.8715 17.1918V25.0357L76.8849 20.0178C77.2956 19.6071 77.8527 19.3764 78.4336 19.3764C79.0144 19.3764 79.5715 19.6071 79.9822 20.0178C80.3929 20.4286 80.6237 20.9856 80.6237 21.5665C80.6237 22.1474 80.3929 22.7044 79.9822 23.1151L74.9644 28.1286H82.8083C83.2415 28.1278 83.6651 28.2557 84.0256 28.496C84.386 28.7363 84.667 29.0782 84.8328 29.4783C84.9987 29.8785 85.042 30.3189 84.9573 30.7438C84.8726 31.1686 84.6636 31.5587 84.3569 31.8646L71.2328 44.9888C71.0293 45.1918 70.7877 45.3527 70.522 45.4623C70.2563 45.5719 69.9715 45.628 69.6841 45.6275H57.4655L51.5465 51.5509C51.1358 51.9616 50.5787 52.1923 49.9978 52.1923C49.417 52.1923 48.8599 51.9616 48.4492 51.5509C48.0385 51.1401 47.8077 50.5831 47.8077 50.0022C47.8077 49.4214 48.0385 48.8643 48.4492 48.4536L54.3726 42.5346V39.4416ZM58.7473 31.2215V38.1598L67.4967 29.4104V22.4721L58.7473 31.2215ZM61.8402 41.2528H68.7785L77.528 32.5033H70.5897L61.8402 41.2528Z" fill="#BF390B"/>
</g>
<defs>
<clipPath id="clip0_799_1382">
<rect width="70" height="70" fill="white" transform="translate(15 15)"/>
</clipPath>
</defs>
</svg>
